<?xml version="1.0" standalone="no"?>
<!DOCTYPE svg PUBLIC "-//W3C//DTD SVG 20010904//EN"
 "http://www.w3.org/TR/2001/REC-SVG-20010904/DTD/svg10.dtd">
<svg version="1.0" xmlns="http://www.w3.org/2000/svg"
 width="863.000000pt" height="1024.000000pt" viewBox="0 0 863.000000 1024.000000"
 preserveAspectRatio="xMidYMid meet">

<g transform="translate(0.000000,1024.000000) scale(0.100000,-0.100000)"
fill="#000000" stroke="none">
<path d="M6320 10225 c-369 -54 -771 -227 -1097 -471 -295 -222 -589 -604
-737 -957 -126 -301 -185 -615 -167 -887 l6 -85 57 -5 c82 -7 269 6 363 25
358 75 696 273 1015 595 370 373 596 787 681 1245 22 119 37 426 25 508 -8 54
-4 53 -146 32z"/>
<path d="M5965 7790 c-245 -38 -464 -98 -805 -220 -302 -109 -601 -205 -696
-224 -78 -16 -86 -16 -181 3 -134 28 -310 83 -604 189 -517 188 -769 247
-1049 246 -392 -2 -770 -97 -1130 -286 -624 -326 -1093 -898 -1328 -1618 -68
-208 -118 -443 -148 -705 -25 -213 -25 -714 0 -950 59 -562 198 -1115 421
-1675 205 -516 428 -920 755 -1370 415 -569 748 -900 1067 -1059 361 -180 658
-163 1292 76 423 159 669 213 971 213 277 -1 550 -61 919 -204 267 -104 451
-156 640 -181 200 -27 363 -12 549 50 229 77 420 204 647 430 137 137 236 255
428 510 404 538 647 981 869 1584 27 73 48 134 46 135 -2 0 -64 31 -138 68
-541 268 -981 758 -1159 1293 -158 474 -160 1019 -6 1482 154 462 470 848 948
1158 42 28 77 53 77 57 0 18 -174 224 -269 318 -378 374 -875 600 -1497 680
-200 26 -450 26 -619 0z"/>
</g>
</svg>
